<mxfile host="app.diagrams.net" agent="Mozilla/5.0 (Windows NT 10.0; Win64; x64) AppleWebKit/537.36 (KHTML, like Gecko) Chrome/131.0.0.0 Safari/537.36 Edg/131.0.0.0" version="25.0.3">
  <diagram id="C5RBs43oDa-KdzZeNtuy" name="Page-1">
    <mxGraphModel dx="1042" dy="565" grid="1" gridSize="10" guides="1" tooltips="1" connect="1" arrows="1" fold="1" page="1" pageScale="1" pageWidth="827" pageHeight="1169" math="0" shadow="0">
      <root>
        <mxCell id="WIyWlLk6GJQsqaUBKTNV-0" />
        <mxCell id="WIyWlLk6GJQsqaUBKTNV-1" parent="WIyWlLk6GJQsqaUBKTNV-0" />
        <mxCell id="RA9dOJkUv8S5tvwuqFEl-4" value="" style="edgeStyle=orthogonalEdgeStyle;rounded=0;orthogonalLoop=1;jettySize=auto;html=1;" edge="1" parent="WIyWlLk6GJQsqaUBKTNV-1" source="RA9dOJkUv8S5tvwuqFEl-0" target="RA9dOJkUv8S5tvwuqFEl-3">
          <mxGeometry relative="1" as="geometry" />
        </mxCell>
        <mxCell id="RA9dOJkUv8S5tvwuqFEl-0" value="START" style="ellipse;whiteSpace=wrap;html=1;" vertex="1" parent="WIyWlLk6GJQsqaUBKTNV-1">
          <mxGeometry x="350" y="150" width="120" height="80" as="geometry" />
        </mxCell>
        <mxCell id="RA9dOJkUv8S5tvwuqFEl-6" value="" style="edgeStyle=orthogonalEdgeStyle;rounded=0;orthogonalLoop=1;jettySize=auto;html=1;" edge="1" parent="WIyWlLk6GJQsqaUBKTNV-1" source="RA9dOJkUv8S5tvwuqFEl-3" target="RA9dOJkUv8S5tvwuqFEl-5">
          <mxGeometry relative="1" as="geometry" />
        </mxCell>
        <mxCell id="RA9dOJkUv8S5tvwuqFEl-3" value="Nhập a và b" style="shape=parallelogram;perimeter=parallelogramPerimeter;whiteSpace=wrap;html=1;fixedSize=1;" vertex="1" parent="WIyWlLk6GJQsqaUBKTNV-1">
          <mxGeometry x="350" y="320" width="120" height="60" as="geometry" />
        </mxCell>
        <mxCell id="RA9dOJkUv8S5tvwuqFEl-10" value="TRUE" style="edgeStyle=orthogonalEdgeStyle;rounded=0;orthogonalLoop=1;jettySize=auto;html=1;" edge="1" parent="WIyWlLk6GJQsqaUBKTNV-1" source="RA9dOJkUv8S5tvwuqFEl-5" target="RA9dOJkUv8S5tvwuqFEl-9">
          <mxGeometry relative="1" as="geometry" />
        </mxCell>
        <mxCell id="RA9dOJkUv8S5tvwuqFEl-12" value="FALSE" style="edgeStyle=orthogonalEdgeStyle;rounded=0;orthogonalLoop=1;jettySize=auto;html=1;" edge="1" parent="WIyWlLk6GJQsqaUBKTNV-1" source="RA9dOJkUv8S5tvwuqFEl-5" target="RA9dOJkUv8S5tvwuqFEl-11">
          <mxGeometry relative="1" as="geometry" />
        </mxCell>
        <mxCell id="RA9dOJkUv8S5tvwuqFEl-5" value="a == 0?" style="rhombus;whiteSpace=wrap;html=1;" vertex="1" parent="WIyWlLk6GJQsqaUBKTNV-1">
          <mxGeometry x="370" y="450" width="80" height="80" as="geometry" />
        </mxCell>
        <mxCell id="RA9dOJkUv8S5tvwuqFEl-14" value="TRUE" style="edgeStyle=orthogonalEdgeStyle;rounded=0;orthogonalLoop=1;jettySize=auto;html=1;" edge="1" parent="WIyWlLk6GJQsqaUBKTNV-1" source="RA9dOJkUv8S5tvwuqFEl-9" target="RA9dOJkUv8S5tvwuqFEl-13">
          <mxGeometry relative="1" as="geometry" />
        </mxCell>
        <mxCell id="RA9dOJkUv8S5tvwuqFEl-17" value="FALSE" style="edgeStyle=orthogonalEdgeStyle;rounded=0;orthogonalLoop=1;jettySize=auto;html=1;" edge="1" parent="WIyWlLk6GJQsqaUBKTNV-1" source="RA9dOJkUv8S5tvwuqFEl-9" target="RA9dOJkUv8S5tvwuqFEl-16">
          <mxGeometry relative="1" as="geometry" />
        </mxCell>
        <mxCell id="RA9dOJkUv8S5tvwuqFEl-9" value="b == 0?" style="rhombus;whiteSpace=wrap;html=1;" vertex="1" parent="WIyWlLk6GJQsqaUBKTNV-1">
          <mxGeometry x="250" y="570" width="80" height="80" as="geometry" />
        </mxCell>
        <mxCell id="RA9dOJkUv8S5tvwuqFEl-11" value="x= -b/2a" style="whiteSpace=wrap;html=1;" vertex="1" parent="WIyWlLk6GJQsqaUBKTNV-1">
          <mxGeometry x="460" y="560" width="120" height="60" as="geometry" />
        </mxCell>
        <mxCell id="RA9dOJkUv8S5tvwuqFEl-13" value="Phương trình vô&lt;br&gt;số nghiệm" style="whiteSpace=wrap;html=1;" vertex="1" parent="WIyWlLk6GJQsqaUBKTNV-1">
          <mxGeometry x="120" y="690" width="120" height="60" as="geometry" />
        </mxCell>
        <mxCell id="RA9dOJkUv8S5tvwuqFEl-22" style="edgeStyle=orthogonalEdgeStyle;rounded=0;orthogonalLoop=1;jettySize=auto;html=1;entryX=0.5;entryY=0;entryDx=0;entryDy=0;" edge="1" parent="WIyWlLk6GJQsqaUBKTNV-1" source="RA9dOJkUv8S5tvwuqFEl-16" target="RA9dOJkUv8S5tvwuqFEl-20">
          <mxGeometry relative="1" as="geometry" />
        </mxCell>
        <mxCell id="RA9dOJkUv8S5tvwuqFEl-16" value="Phương trình&lt;br&gt;vô nghiệm" style="whiteSpace=wrap;html=1;" vertex="1" parent="WIyWlLk6GJQsqaUBKTNV-1">
          <mxGeometry x="330" y="690" width="120" height="60" as="geometry" />
        </mxCell>
        <mxCell id="RA9dOJkUv8S5tvwuqFEl-23" style="edgeStyle=orthogonalEdgeStyle;rounded=0;orthogonalLoop=1;jettySize=auto;html=1;entryX=1;entryY=0.5;entryDx=0;entryDy=0;" edge="1" parent="WIyWlLk6GJQsqaUBKTNV-1" source="RA9dOJkUv8S5tvwuqFEl-18" target="RA9dOJkUv8S5tvwuqFEl-20">
          <mxGeometry relative="1" as="geometry">
            <mxPoint x="460" y="880" as="targetPoint" />
            <Array as="points">
              <mxPoint x="560" y="880" />
            </Array>
          </mxGeometry>
        </mxCell>
        <mxCell id="RA9dOJkUv8S5tvwuqFEl-18" value="Phương trình có&lt;br&gt;duy nhất 1 &lt;br&gt;nghiệm x" style="shape=parallelogram;perimeter=parallelogramPerimeter;whiteSpace=wrap;html=1;fixedSize=1;" vertex="1" parent="WIyWlLk6GJQsqaUBKTNV-1">
          <mxGeometry x="490" y="700" width="120" height="60" as="geometry" />
        </mxCell>
        <mxCell id="RA9dOJkUv8S5tvwuqFEl-19" style="edgeStyle=orthogonalEdgeStyle;rounded=0;orthogonalLoop=1;jettySize=auto;html=1;entryX=0.587;entryY=-0.02;entryDx=0;entryDy=0;entryPerimeter=0;" edge="1" parent="WIyWlLk6GJQsqaUBKTNV-1" source="RA9dOJkUv8S5tvwuqFEl-11" target="RA9dOJkUv8S5tvwuqFEl-18">
          <mxGeometry relative="1" as="geometry" />
        </mxCell>
        <mxCell id="RA9dOJkUv8S5tvwuqFEl-20" value="END" style="ellipse;whiteSpace=wrap;html=1;" vertex="1" parent="WIyWlLk6GJQsqaUBKTNV-1">
          <mxGeometry x="330" y="840" width="120" height="80" as="geometry" />
        </mxCell>
        <mxCell id="RA9dOJkUv8S5tvwuqFEl-21" style="edgeStyle=orthogonalEdgeStyle;rounded=0;orthogonalLoop=1;jettySize=auto;html=1;entryX=0;entryY=0.625;entryDx=0;entryDy=0;entryPerimeter=0;" edge="1" parent="WIyWlLk6GJQsqaUBKTNV-1" source="RA9dOJkUv8S5tvwuqFEl-13" target="RA9dOJkUv8S5tvwuqFEl-20">
          <mxGeometry relative="1" as="geometry">
            <Array as="points">
              <mxPoint x="170" y="890" />
            </Array>
          </mxGeometry>
        </mxCell>
      </root>
    </mxGraphModel>
  </diagram>
</mxfile>
